<?xml version="1.0" encoding="UTF-8"?>
<!DOCTYPE svg PUBLIC "-//W3C//DTD SVG 1.1//EN" "http://www.w3.org/Graphics/SVG/1.1/DTD/svg11.dtd">
<!-- Creator: CorelDRAW X6 -->
<svg xmlns="http://www.w3.org/2000/svg" xml:space="preserve" width="297mm" height="210mm" version="1.1" style="shape-rendering:geometricPrecision; text-rendering:geometricPrecision; image-rendering:optimizeQuality; fill-rule:evenodd; clip-rule:evenodd"
viewBox="0 0 29700 21000"
 xmlns:xlink="http://www.w3.org/1999/xlink">
 <defs>
  <style type="text/css">
   <![CDATA[
    .fil3 {fill:#202320}
    .fil2 {fill:#3D465F}
    .fil1 {fill:#DCB58F}
    .fil0 {fill:#F3E4D1}
   ]]>
  </style>
 </defs>
 <g id="Warstwa_x0020_1">
  <metadata id="CorelCorpID_0Corel-Layer"/>
  <path class="fil0" d="M16145 6024c83,-293 800,-461 1066,-358 187,72 272,217 349,391 68,154 181,379 207,541 -100,-22 -200,-120 -237,-179 -48,19 -6,31 -96,78 -69,36 -110,26 -187,25 -484,-2 -589,-76 -750,-534l-353 35zm149 -1111c-240,297 -581,580 -812,877 -288,371 -281,910 -54,1309 330,578 1033,895 1684,861 491,-25 519,-188 653,-196 113,140 110,276 265,433 290,292 989,716 960,1151l-359 -75c-51,221 391,470 540,578 247,180 455,392 800,276l57 -189 -242 -84c-256,-73 -461,-386 -246,-609 219,-226 535,-5 588,222 205,255 379,100 347,-213 -47,-224 -356,-420 -503,-595 -164,-194 -327,-416 -480,-621 -296,-394 -667,-871 -902,-1298 -151,-276 -336,-418 -353,-745 -21,-394 -166,-430 -438,-665 -167,-144 -419,-400 -603,-498 -293,-155 -607,22 -902,79z"/>
  <path class="fil0" d="M10900 12661c154,53 2200,32 2531,34 425,3 851,0 1276,0 405,0 894,25 1289,-3l-28 -11c-355,18 -755,2 -1115,2 -367,0 -734,0 -1100,0 -319,0 -2003,44 -2169,-45 -66,-171 58,-1651 95,-1927 71,-533 172,-1154 399,-1643 236,-508 398,-850 741,-1304 146,-192 309,-374 498,-525 76,-61 243,-158 275,-241 27,-71 21,-116 63,-191 36,-64 62,-86 86,-165l-52 7c-278,178 -927,795 -1154,1053 -371,420 -644,813 -893,1318 -297,604 -424,1077 -456,1753 -54,1149 287,1468 309,1888l-595 1z"/>
  <path class="fil0" d="M12448 6525c-225,-17 -983,399 -1196,537 -353,229 -663,486 -939,804 -278,322 -503,724 -606,1138 -161,645 56,884 159,1467 124,35 31,-174 23,-286 -27,-358 69,-762 186,-1096 282,-808 871,-1403 1566,-1881 169,-116 335,-235 500,-357 106,-79 461,-278 495,-378l-189 51z"/>
  <path class="fil0" d="M14325 3538c-546,112 -1173,581 -2163,783 -452,92 -885,98 -1338,10 -185,-36 -383,-98 -547,-192 -296,-170 -278,-270 -393,-356 3,187 138,404 246,554 420,201 618,340 1105,411 426,63 920,43 1327,-106 296,-108 1780,-894 1883,-1117l-120 12z"/>
  <path class="fil0" d="M9182 7345c183,-385 1231,-946 1630,-1121 369,-162 679,-216 1064,-311 119,-29 993,-278 1045,-309l-135 -4c-813,80 -1668,41 -2424,397 -293,138 -610,341 -823,588 -177,205 -507,610 -541,876l184 -117z"/>
  <path class="fil0" d="M14562 4572c39,-34 725,-224 846,-266 267,-91 549,-189 805,-306 450,-204 1121,-545 1113,-1121 -138,-85 -569,442 -668,545 -331,348 -1191,672 -1645,847 -112,43 -941,288 -946,294 116,70 354,3 495,6z"/>
  <path class="fil0" d="M15038 3640l-5 96c37,-34 296,-543 374,-659 87,-129 353,-487 495,-531 39,81 56,183 165,189 29,-151 3,-317 -30,-466 -3,-68 -10,-139 -74,-173 -121,54 -537,481 -635,600 -104,125 -177,230 -225,389 -35,114 -81,444 -65,554z"/>
  <path class="fil0" d="M9032 12086c81,-38 51,37 164,-58 41,-34 80,-61 123,-91 263,-188 500,-416 550,-761 -36,-58 -46,-202 -110,-223 -46,26 -116,288 -158,362 -308,543 -612,486 -841,705 62,85 179,67 271,67z"/>
  <path class="fil1" d="M13464 12643c-182,-8 -798,65 -864,-86 -55,-126 -153,-634 -175,-788 -174,-1195 -15,-2168 467,-3262 121,-274 462,-1091 713,-1210 -15,289 -282,936 -378,1253 -138,453 -232,901 -275,1373 -46,503 -23,1018 64,1516 38,218 104,430 182,636 75,199 204,397 265,568zm225 -5994l52 -7c-24,79 -50,101 -86,165 -42,75 -36,120 -63,191 -32,84 -199,181 -275,241 -189,151 -352,333 -498,525 -344,454 -505,796 -741,1304 -228,489 -329,1110 -399,1643 -37,276 -160,1756 -95,1927 166,89 1850,45 2169,45 367,0 733,0 1100,0 360,0 760,16 1115,-2 -472,-268 -902,-741 -1195,-1196 -395,-614 -530,-1010 -658,-1729 -124,-698 -145,-1514 -26,-2213 86,-504 322,-1390 927,-1479 -87,192 -203,344 -273,555 -46,137 -16,276 -45,343 -49,114 -41,239 -27,360 52,443 181,824 510,1136 312,296 811,426 1232,409 277,-12 708,-102 900,-331 77,-93 81,-186 212,-211 -3,132 -21,177 -57,298 -42,142 -45,113 -134,227 -66,84 -316,325 -337,374 169,133 488,287 684,396 115,64 234,123 349,187 181,101 241,44 310,234 94,257 112,610 331,750 120,77 242,139 385,158 104,14 381,-6 462,-72 -286,-161 -263,9 -645,-464 -80,-99 -162,-213 -251,-304 -93,-94 -212,-230 -127,-370 301,-105 745,675 1267,730 392,41 539,51 626,-358 30,-139 181,-776 88,-856 32,312 -142,468 -347,213 17,117 -23,189 -80,286 -67,115 -137,113 -263,100l242 84 -57 189c-345,116 -553,-96 -800,-276 -149,-109 -590,-358 -540,-578l359 75c29,-435 -670,-858 -960,-1151 -156,-157 -153,-293 -265,-433 -133,7 -161,170 -653,196 -651,34 -1354,-283 -1684,-861 -227,-399 -234,-938 54,-1309 231,-297 572,-580 812,-877 -513,144 -1089,331 -1518,648 -265,196 -908,822 -1088,1087z"/>
  <path class="fil1" d="M12448 6525l189 -51c-34,100 -389,299 -495,378 -165,122 -331,240 -500,357 -695,478 -1284,1073 -1566,1881 -117,334 -213,739 -186,1096 8,112 102,321 -23,286 18,94 51,178 148,206 47,-293 37,-539 111,-846 165,-686 584,-1307 1085,-1798 159,-156 316,-326 481,-473 168,-151 358,-287 531,-433 175,-149 327,-307 514,-450 154,-118 459,-270 565,-410 -147,5 -301,74 -439,117 -121,38 -351,23 -414,141z"/>
  <path class="fil1" d="M14325 3538l120 -12c-103,223 -1588,1009 -1883,1117 -408,149 -901,169 -1327,106 -487,-71 -684,-210 -1105,-411 76,202 466,423 656,519 542,273 1471,259 2059,176 177,-25 798,-143 902,-274l-679 -129c12,-69 693,-397 807,-466 232,-139 625,-341 595,-664 -49,-3 -124,-10 -146,37z"/>
  <path class="fil1" d="M12786 5601l135 4c-52,31 -926,280 -1045,309 -385,94 -694,149 -1064,311 -399,175 -1447,736 -1630,1121 239,-56 370,-185 575,-297 190,-104 394,-187 587,-289 409,-215 812,-360 1249,-503 429,-141 2232,-787 2532,-976l-1339 321z"/>
  <path class="fil1" d="M14562 4572c831,-39 1454,-237 2230,-488 340,-110 708,-71 955,-408 147,-199 64,-309 -115,-417 -81,-48 -105,-113 -152,-189 -39,-63 -45,-45 -82,-83 -50,-51 6,-80 -72,-107 8,577 -663,917 -1113,1121 -256,116 -539,214 -805,306 -121,41 -807,232 -846,266z"/>
  <path class="fil1" d="M15038 3640c-67,72 -46,100 -34,191 324,-23 292,-195 383,-434 62,-162 210,-402 397,-423l-4 468c120,-85 244,-355 285,-496 39,-133 94,-600 -29,-677 33,149 59,315 30,466 -108,-7 -126,-109 -165,-189 -142,44 -407,401 -495,531 -78,116 -337,625 -374,659l5 -96z"/>
  <path class="fil1" d="M9870 11175c-50,345 -287,573 -550,761 -43,31 -82,57 -123,91 -114,95 -83,20 -164,58 496,-10 768,-159 1028,-577 264,-424 437,-635 427,-1172 -310,65 61,967 -618,838z"/>
  <path class="fil2" d="M20237 11440c401,-24 -171,10 0,0zm-2910 1260c533,-83 946,-21 1451,-25 170,-1 310,-26 487,-17 669,34 1302,0 1966,9 -11,-46 195,-424 233,-494 28,-51 34,-102 52,-134 15,-27 57,-65 79,-109 24,-49 42,-236 65,-313 28,-94 76,-183 88,-282 35,-289 136,-576 153,-782 12,-147 1,-57 49,-141 -27,-219 -17,-376 7,-593 21,-188 3,-439 0,-634 -3,-239 -106,-269 -102,-530 3,-234 -26,-317 -82,-540 -83,-328 -190,-661 -277,-995 -33,-128 -764,-1487 -880,-1675 -123,-199 -424,-496 -589,-687 -412,-478 -542,-558 -1021,-898 -331,-235 -121,-113 -200,-433 6,60 15,51 -57,53 -29,1 -80,-2 -110,-4 -83,-7 -95,-38 -169,-51 -8,233 -52,468 -179,667 -115,179 -349,324 -417,439 22,104 452,468 556,577 189,197 350,439 441,698 51,144 71,298 127,438 51,130 136,247 211,364 148,233 294,461 453,687 158,224 558,734 755,949 93,102 205,182 292,283 212,249 382,392 396,745 7,178 -42,337 -55,511 -13,183 9,351 -43,531 -92,317 -236,470 -522,617 -244,126 -478,402 -684,455 -321,82 -648,162 -975,65 -314,-93 -518,-133 -735,-403 -202,-251 -123,-476 -424,-716 -213,-169 -494,-284 -740,-400 -506,-238 -850,-280 -1256,-458 -129,-57 -233,-147 -377,-211 -18,486 -5,705 180,1158 239,583 347,819 726,1330 92,125 241,215 368,323 62,52 149,94 198,143 177,173 289,353 571,462l-11 22z"/>
  <path class="fil2" d="M8956 3874c199,700 -16,418 -576,1329 -140,228 -275,365 -402,620 -53,105 -130,195 -189,318 -57,117 -107,238 -158,358 -242,561 -391,926 -510,1537 -28,142 -38,292 -73,430 -38,148 -11,323 -31,483 -37,289 -12,681 -39,996 80,104 55,7 49,173 -3,87 18,149 18,225 1,182 -12,263 15,455 66,466 139,741 297,1170 72,197 43,235 249,248 220,14 693,-9 890,-83 -8,-198 -186,-76 -527,-474 -153,-179 -312,-475 -256,-717 212,16 149,216 433,297 203,58 442,36 642,-30 260,-86 302,-168 266,-439 -27,-207 -97,-418 -109,-623 -11,-188 -15,-848 55,-1025 34,-87 53,-202 75,-294 23,-97 61,-166 110,-252 60,-105 68,-157 111,-260 71,-167 259,-274 261,-465 -523,-68 -980,511 -1140,528 -70,-416 -124,-407 -421,-642 -189,-149 -430,-395 -387,-662 290,-5 528,371 853,6 175,-196 344,-464 495,-683 96,-141 438,-521 573,-605 120,-74 227,-167 353,-231 88,-45 331,-146 387,-206 -63,-91 -331,-201 -455,-342 -253,-286 -422,-754 -465,-1129 -35,-312 -10,-449 30,-748 -93,46 -102,338 -134,444 -23,75 -48,123 -97,185 -82,104 -52,111 -189,107z"/>
  <path class="fil2" d="M9970 2859c-28,379 449,713 751,855 591,278 696,179 1282,21 210,-56 419,-114 629,-170 222,-60 417,-89 639,-170 334,-122 809,-449 1091,-518l-21 -66c107,-36 233,-43 250,-162 -232,-6 -460,36 -694,11 -69,-7 -594,-95 -619,-112 -44,-30 -21,-34 -101,-74 -60,-30 -238,-224 -272,-282 -122,-205 -117,-384 -110,-611 -207,110 159,739 106,818 0,0 -961,115 -995,109 -127,-21 -19,-49 -160,13 -95,42 -241,77 -343,104 -236,61 -473,117 -710,177 -199,51 -527,160 -708,191l-15 -135z"/>
  <path class="fil3" d="M9032 12086c-92,0 -209,18 -271,-67 229,-219 533,-163 841,-705 42,-74 112,-335 158,-362 64,21 74,165 110,223 679,129 308,-774 618,-838 10,537 -163,748 -427,1172 -260,418 -532,567 -1028,577zm8501 -10770l41 0c111,14 254,131 304,198 182,245 363,570 395,879 25,237 -65,289 39,566 57,153 166,298 159,468 -8,233 -52,468 -179,667 -115,179 -349,324 -417,439 22,104 452,468 556,577 189,197 350,439 441,698 51,144 71,298 127,438 51,130 136,247 211,364 148,233 294,461 453,687 158,224 558,734 755,949 93,102 205,182 292,283 212,249 382,392 396,745 7,178 -42,337 -55,511 -13,183 9,351 -43,531 -92,317 -236,470 -522,617 -244,126 -478,402 -684,455 -321,82 -648,162 -975,65 -314,-93 -518,-133 -735,-403 -202,-251 -123,-476 -424,-716 -213,-169 -494,-284 -740,-400 -506,-238 -850,-280 -1256,-458 -129,-57 -233,-147 -377,-211 -18,486 -5,705 180,1158 239,583 347,819 726,1330 92,125 241,215 368,323 62,52 149,94 198,143 177,173 289,353 571,462l-11 22 -1331 -8 -28 -11c-472,-268 -902,-741 -1195,-1196 -395,-614 -530,-1010 -658,-1729 -124,-698 -145,-1514 -26,-2213 86,-504 322,-1390 927,-1479 -87,192 -203,344 -273,555 -46,137 -16,276 -45,343 -49,114 -41,239 -27,360 52,443 181,824 510,1136 312,296 811,426 1232,409 277,-12 708,-102 900,-331 77,-93 81,-186 212,-211 -3,132 -21,177 -57,298 -42,142 -45,113 -134,227 -66,84 -316,325 -337,374 169,133 488,287 684,396 115,64 234,123 349,187 181,101 241,44 310,234 94,257 112,610 331,750 120,77 242,139 385,158 104,14 381,-6 462,-72 -286,-161 -263,9 -645,-464 -80,-99 -162,-213 -251,-304 -93,-94 -212,-230 -127,-370 301,-105 745,675 1267,730 392,41 539,51 626,-358 30,-139 181,-776 88,-856 -47,-224 -356,-420 -503,-595 -164,-194 -327,-416 -480,-621 -296,-394 -667,-871 -902,-1298 -151,-276 -336,-418 -353,-745 -21,-394 -166,-430 -438,-665 -167,-144 -419,-400 -603,-498 -293,-155 -607,22 -902,79 -513,144 -1089,331 -1518,648 -265,196 -908,822 -1088,1087 -278,178 -927,795 -1154,1053 -371,420 -644,813 -893,1318 -297,604 -424,1077 -456,1753 -54,1149 287,1468 309,1888l-595 1c-103,0 -407,11 -487,-20 -161,-63 -267,-48 -428,1 -288,88 -647,44 -944,24 -316,-21 -671,8 -994,13 -350,6 -646,-6 -993,-21 -145,-176 -354,-850 -400,-1088 -88,-447 -161,-848 -185,-1306 -52,-988 -29,-1735 226,-2696 211,-794 446,-1399 877,-2102 211,-344 1009,-1526 1384,-1592 199,700 -16,418 -576,1329 -140,228 -275,365 -402,620 -53,105 -130,195 -189,318 -57,117 -107,238 -158,358 -242,561 -391,926 -510,1537 -28,142 -38,292 -73,430 -38,148 -11,323 -31,483 -37,289 -12,681 -39,996 80,104 55,7 49,173 -3,87 18,149 18,225 1,182 -12,263 15,455 66,466 139,741 297,1170 72,197 43,235 249,248 220,14 693,-9 890,-83 -8,-198 -186,-76 -527,-474 -153,-179 -312,-475 -256,-717 212,16 149,216 433,297 203,58 442,36 642,-30 260,-86 302,-168 266,-439 -27,-207 -97,-418 -109,-623 -11,-188 -15,-848 55,-1025 34,-87 53,-202 75,-294 23,-97 61,-166 110,-252 60,-105 68,-157 111,-260 71,-167 259,-274 261,-465 -523,-68 -980,511 -1140,528 -70,-416 -124,-407 -421,-642 -189,-149 -430,-395 -387,-662 290,-5 528,371 853,6 175,-196 344,-464 495,-683 96,-141 438,-521 573,-605 120,-74 227,-167 353,-231 88,-45 331,-146 387,-206 -63,-91 -331,-201 -455,-342 -253,-286 -422,-754 -465,-1129 -35,-312 -10,-449 30,-748 -62,-143 118,-433 179,-578 55,-130 184,-437 353,-426 49,120 -1,259 6,380 5,108 64,249 57,345 -28,379 449,713 751,855 591,278 696,179 1282,21 210,-56 419,-114 629,-170 222,-60 417,-89 639,-170 334,-122 809,-449 1091,-518l-21 -66c107,-36 233,-43 250,-162 -232,-6 -460,36 -694,11 -69,-7 -594,-95 -619,-112 -44,-30 -21,-34 -101,-74 -60,-30 -238,-224 -272,-282 -122,-205 -117,-384 -110,-611 77,-151 448,7 560,53 237,100 365,86 594,146 240,63 1031,241 1245,239 248,-237 547,-659 950,-583 203,38 303,212 390,379 135,258 139,331 148,622 98,18 370,-111 465,-164 144,-80 233,-187 291,-341 68,-178 -40,-484 27,-577 18,-24 41,-37 68,-41zm-7665 9156c-103,-583 -320,-821 -159,-1467 103,-414 327,-817 606,-1138 276,-319 585,-576 939,-804 213,-138 971,-554 1196,-537 64,-118 293,-103 414,-141 138,-43 292,-112 439,-117 -106,140 -411,292 -565,410 -186,143 -339,301 -514,450 -172,147 -362,283 -531,433 -165,147 -322,318 -481,473 -501,490 -920,1111 -1085,1798 -74,307 -64,552 -111,846 -97,-28 -130,-112 -148,-206zm-685 -3127l-184 117c34,-266 364,-671 541,-876 213,-248 530,-450 823,-588 756,-356 1611,-316 2424,-397l1339 -321c-300,189 -2102,835 -2532,976 -437,144 -840,288 -1249,503 -193,102 -397,186 -587,289 -206,112 -336,241 -575,297zm948 -3007c-109,-150 -243,-368 -246,-554 115,85 97,186 393,356 164,94 362,156 547,192 453,88 886,82 1338,-10 990,-202 1616,-671 2163,-783 22,-47 97,-40 146,-37 30,322 -364,524 -595,664 -115,69 -795,396 -807,466l679 129c-104,131 -725,249 -902,274 -588,83 -1517,97 -2059,-176 -190,-96 -580,-317 -656,-519zm4432 233c-141,-3 -378,64 -495,-6 5,-6 834,-251 946,-294 455,-175 1314,-499 1645,-847 98,-103 529,-630 668,-545 78,28 22,56 72,107 38,38 44,20 82,83 47,76 71,141 152,189 179,107 261,217 115,417 -248,337 -615,298 -955,408 -776,251 -1399,449 -2230,488zm476 -932c-17,-110 30,-440 65,-554 49,-159 122,-264 225,-389 98,-119 514,-546 635,-600 63,34 70,105 74,173 123,76 67,544 29,677 -41,141 -165,411 -285,496l4 -468c-187,21 -335,261 -397,423 -91,239 -58,411 -383,434 -12,-91 -33,-119 34,-191z"/>
  <path class="fil3" d="M18807 3429c79,319 -131,198 200,433 479,339 609,420 1021,898 165,191 465,488 589,687 117,188 847,1547 880,1675 86,334 194,667 277,995 56,223 85,306 82,540 -4,262 99,291 102,530 2,195 20,446 0,634 -24,216 -34,374 -7,593 -48,84 -37,-6 -49,141 -17,206 -118,493 -153,782 -12,99 -60,187 -88,282 -23,77 -41,264 -65,313 -21,44 -64,82 -79,109 -18,32 -24,82 -52,134 -38,71 -245,448 -233,494l538 0c454,-533 642,-2107 683,-2803 48,-828 -30,-586 -76,-1176 -11,-140 -44,-233 -71,-365 -51,-252 -69,-466 -145,-721 -67,-222 -155,-436 -217,-659 -204,-738 -808,-1608 -1251,-2235 -297,-420 -1402,-1529 -1893,-1600l8 320z"/>
  <path class="fil3" d="M1514 9246l0 107c59,111 32,176 181,253 277,142 522,-78 668,-101 98,-15 310,4 420,6 -48,102 -209,157 -309,360 -285,577 335,356 552,104 156,-181 133,-267 196,-465l671 -42c5,80 -102,69 -146,189 -120,-6 -195,147 -267,237 -86,107 -149,211 -182,346 -40,163 -21,336 191,308 138,-18 245,-107 360,-178 140,-88 387,-439 459,-592 52,-109 87,-280 227,-299 121,-16 390,1 523,6 -83,148 -332,170 -364,414 -73,552 385,863 630,242 115,-292 60,-376 8,-655 120,-10 255,5 377,2 178,-4 180,-51 177,-221 -256,-117 -379,-80 -654,-77 7,-141 243,-252 146,-640 -154,-615 -833,-567 -698,83 70,336 181,298 344,504l-694 27c25,-315 -64,-492 -270,-717 -212,-232 -399,-300 -717,-287 -249,527 356,757 524,1002 -85,18 -576,69 -631,42 -52,-67 -32,-365 -258,-590 -125,-124 -436,-307 -583,-132 -11,419 417,575 445,705 -26,5 -389,1 -420,-5 -152,-29 -166,-117 -294,-173 -120,-52 -268,-57 -391,-13 -175,63 -156,116 -221,250z"/>
  <path class="fil3" d="M27608 9380l0 -176c-89,-107 -94,-159 -238,-230 -316,-155 -549,112 -675,173 -88,44 -325,22 -432,16 61,-112 241,-250 327,-374 118,-170 168,-428 -137,-372 -156,29 -340,140 -439,263 -123,151 -133,364 -232,478l-702 36c72,-96 321,-194 475,-399 125,-166 254,-452 199,-660 -474,-33 -939,393 -1017,843 -35,199 -31,212 -255,213 -430,3 -1012,-19 -1402,1 -37,209 -62,320 194,327 177,5 398,-24 564,-7 -123,168 -244,393 -138,598 48,94 59,178 132,267 66,81 233,108 323,75 179,-66 244,-407 186,-574 -102,-293 -377,-294 -429,-388 47,-32 668,-29 725,4 17,15 111,290 150,357 62,107 131,212 207,309 122,157 448,427 661,359 148,-47 111,-261 71,-371 -43,-119 -130,-212 -206,-310 -214,-276 -610,-313 -655,-372 32,-70 212,-37 280,-38 716,-6 606,-68 729,260 131,347 384,595 781,508 -10,-559 -441,-588 -444,-765 688,-37 364,47 759,213 130,55 279,65 407,-2 155,-81 152,-132 231,-264z"/>
  <path class="fil3" d="M13464 12643c-61,-171 -190,-369 -265,-568 -78,-207 -144,-418 -182,-636 -88,-498 -110,-1012 -64,-1516 43,-472 137,-920 275,-1373 96,-317 363,-965 378,-1253 -251,119 -593,936 -713,1210 -481,1094 -641,2067 -467,3262 22,154 120,662 175,788 66,151 681,78 864,86z"/>
  <path class="fil3" d="M22926 18767c-165,-33 -61,-103 -313,-119 -203,-12 -627,-19 -821,6 -148,19 -253,-19 -397,-17 -145,2 -240,21 -399,14 -123,-6 -289,-21 -408,-12 -149,12 -247,21 -400,25 -142,4 -228,42 -228,199 0,265 466,214 635,193 267,-33 551,-32 821,-27 326,5 904,23 1223,-32 163,-28 183,-77 305,-117 71,159 69,258 221,385 130,109 269,171 441,162 326,-16 576,-358 538,-672 -24,-199 -202,-471 -379,-529 -17,-6 -235,-65 -236,-65 -346,24 -504,321 -604,604z"/>
  <path class="fil3" d="M9350 19035c28,-114 77,-373 -94,-372 -343,2 -1315,20 -1537,-8 -175,-22 -315,-27 -491,-17 -137,8 -358,39 -484,11 -160,-36 -296,-56 -460,-21 -195,42 -223,103 -342,-91 -336,-547 -1079,-416 -1063,367 13,611 918,657 1114,-3 88,-7 296,39 398,53 157,21 214,48 393,55 283,11 573,22 856,27 288,5 578,-25 867,2 330,30 526,5 845,-2z"/>
  <path class="fil3" d="M16145 6024l353 -35c161,458 266,532 750,534 76,0 117,10 187,-25 90,-47 48,-59 96,-78 37,59 137,157 237,179 -26,-162 -140,-387 -207,-541 -77,-175 -162,-319 -349,-391 -267,-103 -984,65 -1066,358z"/>
  <path class="fil3" d="M23701 6267c-140,27 -251,59 -348,171 -52,60 -164,290 -167,360 -3,82 84,313 151,377 106,101 259,132 402,117 275,-30 526,-237 510,-532 -15,-264 -272,-544 -547,-492z"/>
  <path class="fil3" d="M5088 6289c-688,169 -458,1076 180,1001 678,-80 464,-1159 -180,-1001z"/>
  <path class="fil3" d="M16390 18495c-207,-203 -117,-180 -447,-176 -2,72 24,176 24,272l0 575c0,106 -22,177 -25,267l286 -1c-57,-266 -28,-489 -17,-766l289 234c68,-55 198,-227 294,-228l-17 760 273 0c-17,-195 -33,-360 -33,-559 0,-192 28,-375 32,-554l-315 2c-27,79 -70,135 -139,181 -96,65 -126,70 -204,-6z"/>
  <path class="fil3" d="M18035 18319c38,114 40,1014 -1,1113l277 0 -15 -623c101,63 343,505 369,623l290 0c-18,-196 -33,-360 -33,-559 0,-196 26,-370 32,-554l-284 0c31,223 47,389 20,621 -81,-78 -318,-507 -341,-621l-312 0z"/>
  <path class="fil3" d="M5080 11159c-244,67 -444,259 -423,528 26,320 246,429 537,415 650,-33 434,-1094 -115,-942z"/>
  <path class="fil3" d="M23711 11165c-114,18 -225,84 -293,177 -49,66 -131,273 -120,352 17,116 84,228 174,302 140,116 192,109 369,107 579,-6 527,-1041 -130,-939z"/>
  <path class="fil3" d="M13053 18559c308,-101 280,548 158,618 -35,20 -180,26 -210,0 -37,-32 -27,-168 -26,-217 2,-109 -42,-362 78,-401zm-336 -241c77,657 -18,821 0,1113 515,39 798,34 817,-558 20,-618 -358,-560 -816,-555z"/>
  <path class="fil3" d="M10677 18560c150,-5 255,-16 246,177 -9,176 -100,168 -247,163l1 -340zm-289 -239c104,255 63,836 1,1111l310 0 -22 -288c111,26 174,182 184,288l338 0c-30,-87 -238,-270 -189,-362 80,-150 188,-175 155,-410 -54,-390 -472,-373 -776,-339z"/>
  <path class="fil3" d="M11895 18979c-2,-57 25,-203 53,-250 37,79 75,160 71,251l-124 -1zm-418 454c71,0 141,1 213,3 113,3 73,-15 88,-113 15,-95 26,-105 114,-104 67,1 139,-2 210,2l31 210 309 0c-25,-77 -79,-166 -110,-259 -29,-91 -53,-187 -78,-282 -34,-132 -105,-485 -141,-578l-327 7c-20,195 -312,1096 -310,1113z"/>
  <path class="fil3" d="M24000 8096c-168,28 -362,355 -363,513 -1,171 98,578 351,518 331,-79 477,-603 287,-864 -62,-85 -159,-186 -275,-167z"/>
  <path class="fil3" d="M14466 19477l28 0 17 -285c-38,-26 -299,-4 -362,-2 42,-144 393,-758 348,-846l-728 -45c-1,48 -11,237 3,268l390 -6c-75,251 -362,625 -364,872 144,-1 567,-31 668,44z"/>
  <path class="fil3" d="M14727 18320c259,571 389,356 316,1112l287 -1c-33,-258 -68,-392 41,-644 55,-127 252,-400 272,-469l-311 0 -127 290c-127,-64 -126,-198 -168,-290l-310 1z"/>
  <path class="fil3" d="M19786 9855c126,13 196,15 263,-100 56,-97 97,-169 80,-286 -53,-227 -370,-448 -588,-222 -215,223 -10,535 246,609z"/>
  <path class="fil3" d="M17685 19430c-17,-197 -33,-356 -34,-557 0,-199 26,-366 33,-554l-287 2c46,409 26,704 1,1111l286 -2z"/>
  <path class="fil3" d="M2108 13049c-6,343 4,572 40,912 23,212 75,686 -51,861 -116,162 -532,173 -467,421 60,229 372,263 483,478 81,156 55,713 52,914 -3,227 -168,652 84,750 127,49 1634,20 1899,20l11544 1c313,0 629,-27 939,-21 319,6 623,23 944,20 638,-5 1278,0 1916,0l5776 -1c325,1 616,-5 941,-22 305,-16 608,15 914,22 58,-347 34,-546 14,-889 -15,-244 -80,-644 93,-839 115,-130 488,-237 407,-494 -73,-231 -401,-141 -476,-482 -41,-188 -13,-703 -13,-929 0,-249 133,-709 -206,-747 -146,-16 -334,19 -487,22 -153,3 -309,-6 -463,-5 -318,1 -636,1 -954,1 -2547,0 -5093,-3 -7640,-5l-11475 5c-1266,0 -2552,-22 -3816,5zm5989 3547l-664 -6c-30,-108 24,-125 101,-175 4,-118 -24,-413 -84,-507l-691 23c-35,53 -77,257 -86,331 -26,209 92,151 95,318l-670 9c7,-64 136,-153 180,-275 60,-167 156,-582 166,-756 13,-208 -187,-98 -190,-272 311,-117 213,132 446,-672 41,-143 84,-287 125,-431 83,-298 -114,-212 -168,-382 149,1 311,39 465,49 203,12 298,-35 463,-44 -32,156 -136,135 -99,329 21,109 60,239 88,349 60,232 120,466 177,698 81,331 123,879 197,1116 37,119 136,201 150,297zm-708 -1068l-250 -998c-55,97 -143,524 -194,679 -130,394 -78,297 445,319zm5461 -251c133,-86 256,112 352,-221 43,-149 82,-302 122,-452 38,-142 94,-313 120,-454 50,-264 -110,-177 -194,-350 126,-7 330,29 473,32 171,4 318,-21 483,-29 -39,184 -130,105 -92,323 43,246 160,831 265,1011 81,13 297,-1 286,119 -8,87 -182,114 -247,161 -9,198 73,444 108,643 38,219 212,438 219,530l-697 -3c0,-171 152,-89 109,-332 -13,-72 -75,-282 -114,-337l-637 17c-39,47 -97,283 -104,354 -20,214 109,156 132,311l-690 -15c-7,-63 120,-177 159,-298 37,-116 71,-240 101,-357 178,-702 -64,-443 -156,-654zm655 211l470 12 -221 -962 -249 950zm6285 -1692c161,1 322,50 498,49 172,-1 341,-29 511,-50 -49,202 -172,102 -127,397 19,125 169,768 208,882 112,326 227,102 293,274l-202 77c-34,212 71,699 156,921 36,95 106,162 113,257l-711 -23c55,-83 136,-131 145,-226 8,-89 -25,-251 -56,-336 -44,-118 -166,-104 -280,-106 -71,-1 -316,2 -371,23 -43,56 -89,263 -92,343 -8,192 115,183 127,312l-667 4c20,-107 114,-171 154,-301 310,-1011 -46,-702 -101,-989 136,-70 315,10 374,-199 42,-145 63,-323 98,-475 34,-149 98,-304 123,-451 51,-299 -123,-226 -190,-387zm527 783c-87,2 -81,146 -95,214 -49,249 -182,517 -180,737l477 -6 -203 -946zm2562 -782c284,37 429,66 726,52 231,-11 439,15 637,142 446,286 400,708 399,1179 -2,501 63,868 -351,1227 -302,262 -983,213 -1367,199 8,-167 109,-102 139,-249 22,-110 24,-254 26,-367 8,-526 0,-1068 4,-1597 4,-553 -132,-337 -213,-585zm645 471c-33,126 -16,1319 -17,1633 0,64 -36,284 41,294 124,16 416,-60 513,-153 198,-190 149,-889 148,-1164 -1,-164 -13,-397 -150,-510 -119,-99 -393,-140 -535,-101zm-7892 -466c720,49 851,115 1625,-1l-25 690c-250,-29 -122,-177 -385,-217 -189,-29 -385,-9 -581,-5l1 735c113,2 226,8 337,-11 92,-15 197,-62 285,-58l-2 670c-188,1 -107,-172 -233,-191 -120,-17 -267,12 -386,24 -20,220 -9,436 -15,656 -10,378 150,350 161,496l-763 4c43,-167 137,-71 158,-305 15,-163 21,-731 -20,-875 -36,-127 -158,-29 -236,-219l234 -126c37,-212 41,-490 40,-708 -3,-533 -142,-381 -194,-561zm-6817 19c364,17 462,30 830,-24 -33,151 -92,111 -135,211 -54,127 -23,868 -21,1027 4,378 70,920 -134,1251 -212,344 -602,423 -951,230 -468,-259 -235,-762 92,-774 23,140 -15,263 88,370 94,97 202,120 318,42 231,-156 169,-493 160,-730 -11,-301 -32,-605 -30,-906 1,-141 8,-304 -10,-442 -21,-162 -143,-94 -208,-256zm951 -24l662 46c54,206 418,796 557,1075 44,89 100,331 191,347 10,-262 49,-950 21,-1201 -19,-174 -129,-110 -176,-235l778 -9c-18,134 -107,97 -140,225 -55,217 -35,872 -32,1107 5,365 -33,774 -27,1120 3,160 61,198 74,309l-465 5c-13,-22 -104,-352 -158,-458 -68,-133 -143,-275 -202,-412 -70,-162 -286,-738 -450,-783 -28,295 -7,586 -13,881 -3,149 -6,300 -3,448 5,231 112,203 114,328l-675 -1c10,-128 121,-120 147,-243 16,-74 5,-306 5,-397 0,-266 -3,-533 1,-799 3,-261 20,-515 17,-779 -6,-548 -180,-363 -226,-576zm12213 7c157,39 203,63 379,48 106,-9 289,-56 380,-50 -2,104 -70,130 -107,226 -34,88 -45,202 -47,296 -9,481 82,1602 -115,1938 -178,304 -619,489 -936,293 -354,-219 -288,-870 74,-834 11,144 -27,251 78,370 90,102 215,112 324,33 238,-171 177,-467 161,-720 -18,-286 -31,-599 -26,-885 2,-132 39,-315 20,-435 -25,-160 -158,-168 -186,-280zm-4586 7c288,7 631,6 912,32 256,23 479,96 653,293 228,258 262,759 28,1049 -62,77 -200,175 -241,240 -18,78 257,751 336,905 45,88 150,181 167,260l-639 -11c-22,-142 67,-172 14,-298 -69,-160 -291,-696 -314,-812l-332 67 0 606c-16,321 118,298 129,448l-699 0c7,-135 109,-103 133,-291 24,-186 28,-639 11,-826 -20,-223 -98,-72 -221,-216 33,-78 141,-113 220,-147 17,-136 28,-920 -7,-1070 -33,-139 -108,-93 -150,-232zm584 1338c87,13 420,-23 503,-61 134,-62 204,-233 213,-373 27,-446 -322,-510 -688,-473l-27 907zm8740 60c-9,172 -149,163 -285,233 -10,189 50,459 102,640 26,89 56,187 100,270 34,64 130,172 129,239l-742 9c33,-169 149,-125 139,-308 -7,-119 -71,-239 -89,-361l-701 20c-24,95 -75,267 -81,361 -11,179 172,147 161,275l-725 12c39,-198 144,-93 265,-697 21,-103 82,-314 47,-408 -42,-111 -214,-113 -253,-225l331 -9c93,-303 244,-808 281,-1122 28,-246 -157,-191 -184,-283 90,-33 363,11 490,8 162,-4 312,-49 466,-62 -17,240 -208,8 39,874 209,734 226,554 509,534zm-1258 317l485 -13c0,-140 -73,-333 -104,-472 -27,-120 -37,-383 -117,-466l-263 951zm-19188 -1020c-171,7 -174,-87 -260,-182 -73,-82 -287,-92 -376,-56 -26,20 -13,1602 -15,1849 -2,315 130,353 144,493l-712 -10c-16,-108 61,-122 101,-202 39,-79 31,-194 32,-281 3,-369 39,-1682 -6,-1874 -435,-78 -354,257 -627,279l-22 -683c403,-2 934,49 1317,19 132,-10 280,-50 396,-57 -2,126 -16,241 -7,369 7,110 44,231 37,337zm-2266 21c-141,-183 -228,-337 -513,-279 -236,48 -383,262 -219,477 191,251 673,403 933,722 449,551 -135,1391 -921,1153 -131,-39 -455,-184 -564,-261l-1 -419 274 -206c68,90 35,377 391,465 213,53 502,-86 490,-315 -14,-270 -684,-600 -893,-782 -742,-646 131,-1384 655,-1276 107,22 198,82 301,115 167,54 200,5 346,-33 8,81 -12,338 -43,410 -27,63 -180,205 -238,228zm8100 681c10,-205 11,-893 -17,-1144 -19,-174 -129,-110 -176,-235l778 -9c-18,134 -107,97 -140,225 -55,217 -35,872 -32,1107 -2,295 4,367 -2,662 -3,149 -6,300 -3,448 5,231 112,203 114,328l-675 -1c10,-128 121,-120 147,-243 16,-74 5,-306 5,-397 0,-266 -3,-533 0,-742z"/>
 </g>
</svg>
